<svg xmlns="http://www.w3.org/2000/svg" viewBox="0 0 22 20" width="22" height="20">
  <path d="M2.35.21A.78.78 0 0 0 1.81 0a.72.72 0 0 0-.53.23.77.77 0 0 0 0 1.06l18.37 18.47a.85.85 0 0 0 .25.17.66.66 0 0 0 .3.07.77.77 0 0 0 .3-.06.62.62 0 0 0 .26-.17.85.85 0 0 0 .17-.25 1 1 0 0 0 .05-.3.73.73 0 0 0-.06-.3.94.94 0 0 0-.18-.25Zm19.56 10.34A11.51 11.51 0 0 1 19.22 15l-3.17-3.18a5.35 5.35 0 0 0 .19-3 5.5 5.5 0 0 0-1.44-2.65 5.38 5.38 0 0 0-5.6-1.26L6.67 2.37a11.48 11.48 0 0 1 15.24 7 1.85 1.85 0 0 1 0 1.18Z" fill="currentColor"/>
  <path d="M14.83 10a3.12 3.12 0 0 1 0 .54l-4.37-4.37a3.7 3.7 0 0 1 1.62.12 3.84 3.84 0 0 1 1.43.78 3.92 3.92 0 0 1 1 1.31 4 4 0 0 1 .32 1.62Zm-3.29 3.81L7.21 9.44a3.79 3.79 0 0 0 1.08 3.26 3.83 3.83 0 0 0 3.25 1.09Z" fill="currentColor"/>
  <path d="M5.64 10A5.46 5.46 0 0 1 6 8.17L2.78 5A11.51 11.51 0 0 0 .09 9.42a1.88 1.88 0 0 0 0 1.15A11.5 11.5 0 0 0 11 18.44a11.33 11.33 0 0 0 4.33-.85l-2.53-2.54a5.43 5.43 0 0 1-2.53.27 5.34 5.34 0 0 1-2.36-.94 5.25 5.25 0 0 1-1.67-1.92 5.37 5.37 0 0 1-.6-2.46Z" fill="currentColor"/>
</svg>