<svg xmlns="http://www.w3.org/2000/svg" fill="none" viewBox="0 0 17 24" width="17" height="24">
  <path fill="currentColor" d="M8.5 0C3.8 0 0 3.756 0 8.4c0 2.088.607 4.044 1.712 5.808 1.154 1.848 2.672 3.432 3.837 5.28.571.9.984 1.74 1.421 2.712.316.66.57 1.8 1.53 1.8.96 0 1.214-1.14 1.518-1.8.45-.972.85-1.812 1.42-2.712 1.166-1.836 2.684-3.42 3.838-5.28C16.393 12.444 17 10.488 17 8.4 17 3.756 13.2 0 8.5 0Zm0 11.7c-1.676 0-3.036-1.344-3.036-3s1.36-3 3.036-3 3.036 1.344 3.036 3-1.36 3-3.036 3Z"/>
</svg>