<svg xmlns="http://www.w3.org/2000/svg" fill="none" viewBox="0 0 33 33" width="33" height="33">
  <path fill="currentColor" fill-rule="evenodd" d="M16.5 32.25c8.698 0 15.75-7.052 15.75-15.75S25.198.75 16.5.75.75 7.802.75 16.5 7.802 32.25 16.5 32.25Zm-1.575-.078v-4.647S7.05 25.95 7.05 18.863V8.625h4.725V7.05h3.15v6.3h-3.15v-1.575H10.2v7.088s.788 5.512 6.3 5.512c5.513 0 6.3-5.512 6.3-5.512v-7.088h-1.575v1.575h-3.15v-6.3h3.15v1.575h4.725v10.238c0 7.087-7.875 8.662-7.875 8.662v4.647s-.956.078-1.575.078a24.68 24.68 0 0 1-1.575-.078Z" clip-rule="evenodd"/>
</svg>